# xmcd CD database file
#
# Track frame offsets:
#	150
#	16002
#	37342
#	55634
#	72599
#	90052
#	106267
#	124146
#	136489
#	150335
#	171592
#
# Disc length: 2550 seconds
#
# Revision: 0
# Processed by: cddbd v1.5.2PL0 Copyright (c) Steve Scherf et al.
# Submitted via: CDex 1.79
#
DISCID=8a09f40b
DTITLE=Steven Anthony - Aware Of What I Do
DYEAR=2006
DGENRE=Country
TTITLE0=Love Is Not All Flowers
TTITLE1=Life Was Different Then
TTITLE2=Aware Of What I Do
TTITLE3=Goin` Fishin`
TTITLE4=You Gotta Dig Deep
TTITLE5=Many Miles Across The Ocean
TTITLE6=Loving You
TTITLE7=You Won`t Break Me Down
TTITLE8=Sunshine In Your Face
TTITLE9=This Cross
TTITLE10=Old Straw Hat
EXTD=YEAR: 2006
EXTT0=
EXTT1=
EXTT2=
EXTT3=
EXTT4=
EXTT5=
EXTT6=
EXTT7=
EXTT8=
EXTT9=
EXTT10=
PLAYORDER=
